HIERARCHY
ROOT Hips
{
    OFFSET 0.0 0.0 0.0
    CHANNELS 6 Xposition Yposition Zposition Zrotation Xrotation Yrotation
    JOINT LHipJoint
    {
        OFFSET 0.1 0.0 0.0
        CHANNELS 3 Zrotation Xrotation Yrotation
        JOINT LeftHip
        {
            OFFSET 0.1697809249162674 0.0 0.0
            CHANNELS 3 Zrotation Xrotation Yrotation
            JOINT LeftKnee
            {
                OFFSET 0.0 0.0 -0.31428951025009155
                CHANNELS 3 Zrotation Xrotation Yrotation
                JOINT LeftAnkle
                {
                    OFFSET 0.0 0.0 -0.5130666494369507
                    CHANNELS 3 Zrotation Xrotation Yrotation
                    End Site
                    {
                        OFFSET 0.0 -0.1 0.0
                    }
                }
            }
        }
    }
    JOINT lowerback
    {
        OFFSET 0.0 0.0 0.1
        CHANNELS 3 Zrotation Xrotation Yrotation
        JOINT Chest
        {
            OFFSET 0.0 0.0 0.2723461091518402
            CHANNELS 3 Zrotation Xrotation Yrotation
            JOINT Chest2
            {
                OFFSET 0.0 0.0 0.31228214502334595
                CHANNELS 3 Zrotation Xrotation Yrotation
                JOINT LeftCollar
                {
                    OFFSET 0.1 0.0 0.0
                    CHANNELS 3 Zrotation Xrotation Yrotation
                    JOINT LeftShoulder
                    {
                        OFFSET 0.2186739444732666 0.0 0.0
                        CHANNELS 3 Zrotation Xrotation Yrotation
                        JOINT LeftElbow
                        {
                            OFFSET 0.2778531610965729 0.0 0.0
                            CHANNELS 3 Zrotation Xrotation Yrotation
                            JOINT LeftWrist
                            {
                                OFFSET 0.3733416497707367 0.0 0.0
                                CHANNELS 3 Zrotation Xrotation Yrotation
                                End Site
                                {
                                    OFFSET 0.1 0.0 0.0
                                }
                            }
                        }
                    }
                }
                JOINT Neck
                {
                    OFFSET 0.0 0.0 0.1
                    CHANNELS 3 Zrotation Xrotation Yrotation
                    JOINT Head
                    {
                        OFFSET 0.0 0.0 0.2967161536216736
                        CHANNELS 3 Zrotation Xrotation Yrotation
                        End Site
                        {
                            OFFSET 0.0 0.0 0.1692984402179718
                        }
                    }
                }
                JOINT RightCollar
                {
                    OFFSET -0.1 0.0 0.0
                    CHANNELS 3 Zrotation Xrotation Yrotation
                    JOINT RightShoulder
                    {
                        OFFSET -0.2186739444732666 0.0 0.0
                        CHANNELS 3 Zrotation Xrotation Yrotation
                        JOINT RightElbow
                        {
                            OFFSET -0.2778531610965729 0.0 0.0
                            CHANNELS 3 Zrotation Xrotation Yrotation
                            JOINT RightWrist
                            {
                                OFFSET -0.3733416497707367 0.0 0.0
                                CHANNELS 3 Zrotation Xrotation Yrotation
                                End Site
                                {
                                    OFFSET -0.1 0.0 0.0
                                }
                            }
                        }
                    }
                }
            }
        }
    }
    JOINT RHipJoint
    {
        OFFSET -0.1 0.0 0.0
        CHANNELS 3 Zrotation Xrotation Yrotation
        JOINT RightHip
        {
            OFFSET -0.1697809249162674 0.0 0.0
            CHANNELS 3 Zrotation Xrotation Yrotation
            JOINT RightKnee
            {
                OFFSET 0.0 0.0 -0.31428951025009155
                CHANNELS 3 Zrotation Xrotation Yrotation
                JOINT RightAnkle
                {
                    OFFSET 0.0 0.0 -0.5130666494369507
                    CHANNELS 3 Zrotation Xrotation Yrotation
                    End Site
                    {
                        OFFSET 0.0 -0.1 0.0
                    }
                }
            }
        }
    }
}
MOTION
Frames: 6
Frame Time: 0.06666666666666667
1.0934742022072896e-05 0.1609848141670227 -5.278085882309824e-05 -14.900743990087165 -19.603507364463603 -20.937188732565904 1.1034765745125397e-32 -3.1805546814635164e-15 3.9756933518293955e-16 133.77932808869866 53.770387543651914 -156.34919081265244 152.6639251110478 -40.19999825156266 175.01031055887452 0.0 0.0 0.0 1.1034765745125397e-32 -3.1805546814635164e-15 3.9756933518293955e-16 -2.9724992946765165 -5.600165595863741 -3.938170307208672 2.751826434652857 2.91443285131287e-07 -7.464033963365684e-07 1.5902773407317584e-15 1.6552148617688095e-32 1.1927080055488188e-15 64.73437033786404 -49.84555562343894 -86.97829461303353 -81.27694667521553 1.5713807091152385e-06 5.710198959479847e-07 -3.1805546814635164e-15 4.4139062980501586e-32 -1.5902773407317582e-15 1.5902773407317584e-15 1.6552148617688095e-32 1.1927080055488188e-15 5.7324130564988725 -62.130346206873334 -0.26635457769242316 1.5902773407317584e-15 1.6552148617688095e-32 1.1927080055488188e-15 -4.475006368239531 -42.48370760520768 105.12914884373757 66.91709568388534 -1.4284254044581489e-06 1.1127220568960096e-06 0.0 0.0 3.1805546814635164e-15 1.1034765745125397e-32 -3.1805546814635164e-15 3.9756933518293955e-16 159.94783107325614 33.06893207319491 -106.75775791170634 -157.63413535793225 -24.952288993235072 -128.650954822247 -1.3241718894150476e-31 -3.1805546814635168e-15 -4.770832022195275e-15
7.66405719332397e-07 0.16099487245082855 -6.442441372200847e-05 -15.251846459478367 -18.47946172402299 -20.37906711290062 -1.5902773407317584e-15 3.1805546814635168e-15 3.975693351829396e-16 124.88839749441925 55.89848259958415 -149.01720343549442 144.87181195272376 -46.201659999578496 160.54862342486845 2.2069531490250793e-32 -7.951386703658791e-16 3.1805546814635164e-15 -1.5902773407317584e-15 3.1805546814635168e-15 3.975693351829396e-16 -4.018187975324897 -7.18928026187313 -5.618835129256088 2.901021250458917 -1.427938729975247e-06 6.061822275123334e-07 -1.5902773407317584e-15 -5.517382872562698e-33 3.975693351829396e-16 65.65399979800316 -46.47593981158649 -87.90200883572948 -78.87350154187868 6.367781952080418e-07 6.7622912149123825e-06 3.1805546814635168e-15 6.3611093629270335e-15 -6.3611093629270335e-15 -1.5902773407317584e-15 -5.517382872562698e-33 3.975693351829396e-16 3.9253256283939866 -64.86743758846745 -3.0547014402467 -1.5902773407317584e-15 -5.517382872562698e-33 3.975693351829396e-16 -8.278898923225992 -38.59421597921234 103.93801831292156 63.46276795732859 2.5282106456384364e-06 -4.3585020136068703e-07 8.276074308844047e-32 -1.5902773407317582e-15 5.9635400277440935e-15 -1.5902773407317584e-15 3.1805546814635168e-15 3.975693351829396e-16 156.5961990599063 35.66374049491003 -100.00440225937247 -153.8232276808986 -25.141994146901812 -116.88302403445687 -3.1805546814635168e-15 3.975693351829398e-16 -6.7586786981099735e-15
-1.8073897081194445e-06 0.16101983189582825 -7.193937199190259e-05 -16.281612857330362 -17.548219808775613 -19.830518308692092 -1.5902773407317584e-15 -1.1034765745125397e-32 7.951386703658792e-16 120.21456138380776 53.89545601316519 -142.44985650684276 146.73385572020365 -46.979642440391096 157.31159556600417 3.1805546814635168e-15 7.951386703658792e-16 -7.951386703658792e-16 -1.5902773407317584e-15 -1.1034765745125397e-32 7.951386703658792e-16 -5.0617960053062045 -7.965698024426166 -6.244037171615448 2.0770923675484116 -8.372127684323295e-08 1.9859324865402328e-06 0.0 0.0 -7.951386703658792e-16 66.55080544569428 -46.55649980300743 -89.4678178052718 -94.2324786032892 -5.993569936795983e-06 5.467084605227913e-06 -3.1805546814635176e-15 4.4139062980501586e-32 -1.5902773407317588e-15 0.0 0.0 -7.951386703658792e-16 6.404770287196997 -65.66885510621135 -2.4695477020266563 0.0 0.0 -7.951386703658792e-16 -4.063904726337397 -40.088737258495236 105.4357013568588 70.3497486894391 1.2042371417259748e-07 4.225416595994325e-07 0.0 0.0 -3.578124016646457e-15 -1.5902773407317584e-15 -1.1034765745125397e-32 7.951386703658792e-16 152.2223631013485 36.560353779753264 -95.44214461552171 -157.81595220772027 -22.131316553584348 -108.14626173273918 3.1805546814635168e-15 -4.4139062980501586e-32 -1.5902773407317584e-15
-3.6367782740853727e-06 0.16101916134357452 -7.25715362932533e-05 -16.28182222282451 -17.785111612214493 -20.011377159094604 -1.1034765745125397e-31 3.1805546814635168e-15 3.975693351829396e-15 122.68418387505662 53.796364728463544 -144.17449939553185 147.19832567292818 -47.17874039268296 157.9020280028612 4.4139062980501586e-32 -6.361109362927035e-15 7.951386703658794e-16 -1.1034765745125397e-31 3.1805546814635168e-15 3.975693351829396e-15 -4.334039128999073 -6.990764330272672 -5.590104095262874 2.6234676990625787 4.4445962540781096e-07 1.7208128448039276e-06 1.590277340731758e-15 -5.517382872562698e-33 -3.975693351829395e-16 64.80412476375011 -49.72204804090756 -89.46415038831441 -102.09105493136738 1.6059050352768691e-06 -1.9715035937158996e-07 3.1805546814635168e-15 7.951386703658792e-15 -7.951386703658794e-16 1.590277340731758e-15 -5.517382872562698e-33 -3.975693351829395e-16 10.462703030143736 -66.48149623241548 0.5476434578457993 1.590277340731758e-15 -5.517382872562698e-33 -3.975693351829395e-16 -4.940667356901885 -40.093465729192104 105.57452235178903 71.37965474612264 4.851269699764785e-06 -3.923332921129432e-06 1.5902773407317582e-15 -7.951386703658791e-16 7.951386703658791e-16 -1.1034765745125397e-31 3.1805546814635168e-15 3.975693351829396e-15 151.91121413377448 37.465414383816345 -95.24116758421044 -156.8843401566435 -22.614958126937623 -105.73175998036209 0.0 0.0 0.0
1.8129103409592062e-06 0.16100263595581055 -7.30264000594616e-05 -17.077506917542674 -19.74438347981196 -20.780640012650366 1.5902773407317588e-15 -3.1805546814635176e-15 4.4139062980501586e-32 136.683558318186 51.01101111798983 -148.56142484984912 157.71576714482632 -47.893986605274655 165.60437707252007 -1.5902773407317588e-15 -6.3611093629270335e-15 -4.770832022195275e-15 1.5902773407317588e-15 -3.1805546814635176e-15 4.4139062980501586e-32 -0.9807128321367804 -1.7666416570916632 -3.849277919615268 2.48869921196761 -2.1972547008571064e-06 -1.007641534352656e-06 4.138037154422024e-33 -3.975693351829396e-16 1.1927080055488188e-15 73.82290535417032 -46.05045887909633 -75.00904103395173 -62.725691120308376 -1.8156639343518578e-06 1.0118329159054544e-06 0.0 0.0 -6.361109362927033e-15 4.138037154422024e-33 -3.975693351829396e-16 1.1927080055488188e-15 2.1285395291641045 -65.0700779617237 -0.05123204698072867 4.138037154422024e-33 -3.975693351829396e-16 1.1927080055488188e-15 -13.839262353394359 -43.250284236389945 100.80839856819756 63.64744923220657 2.9533140457203865e-06 8.023947070900093e-07 -2.2069531490250793e-32 -1.590277340731758e-15 -1.590277340731758e-15 1.5902773407317588e-15 -3.1805546814635176e-15 4.4139062980501586e-32 160.46270049803525 31.206290336963058 -94.05978074633079 -156.43567355257704 -17.749354678025966 -106.05616627903478 1.5902773407317582e-15 -3.310429723537619e-32 -2.385416011097637e-15
9.510829841019586e-06 0.16100290417671204 -6.99925294611603e-05 -16.506568954922397 -20.794017219952377 -21.192104459920778 -1.5902773407317584e-15 3.1805546814635168e-15 4.4139062980501586e-32 140.6224892729796 50.787015455605065 -139.04293628604188 172.56608761955766 -53.127285970903216 -178.0724896309481 2.234540063387893e-31 3.578124016646456e-15 -7.156248033292912e-15 -1.5902773407317584e-15 3.1805546814635168e-15 4.4139062980501586e-32 0.43116918112094177 0.8337583006284307 -0.4724026446057891 -0.7431022475503714 1.878171746699442e-06 -7.620965574871664e-07 0.0 0.0 -7.951386703658792e-16 114.11748974032866 -30.89104789963239 -50.72414809701326 -22.759898856822794 1.9556279596768317e-06 1.7721879364251805e-06 -6.361109362927035e-15 -1.3241718894150476e-31 2.3854160110976384e-15 0.0 0.0 -7.951386703658792e-16 0.27898905566599963 -63.47271243635932 -1.1446288710181394 0.0 0.0 -7.951386703658792e-16 -18.657628932351553 -48.96344708681329 93.40821902111776 65.03649290859829 2.6195287630652094e-07 -1.3347460340941867e-06 -3.1805546814635168e-15 -1.5902773407317584e-15 6.3611093629270335e-15 -1.5902773407317584e-15 3.1805546814635168e-15 4.4139062980501586e-32 169.57565174807337 19.497602389792736 -90.77690352452858 -161.27561546888333 -10.495341118313686 -106.64418453208712 -3.1805546814635176e-15 -3.975693351829398e-16 1.9878466759146984e-15
